<svg width="1280" height="720" xmlns="http://www.w3.org/2000/svg" xmlns:xlink="http://www.w3.org/1999/xlink" overflow="hidden"><defs><filter id="fx0" x="-10%" y="-10%" width="120%" height="120%" filterUnits="userSpaceOnUse" primitiveUnits="userSpaceOnUse"><feComponentTransfer color-interpolation-filters="sRGB"><feFuncR type="discrete" tableValues="0 0"/><feFuncG type="discrete" tableValues="0 0"/><feFuncB type="discrete" tableValues="0 0"/><feFuncA type="linear" slope="0.4" intercept="0"/></feComponentTransfer><feGaussianBlur stdDeviation="2.22222 2.22222"/></filter><filter id="fx1" x="-10%" y="-10%" width="120%" height="120%" filterUnits="userSpaceOnUse" primitiveUnits="userSpaceOnUse"><feComponentTransfer color-interpolation-filters="sRGB"><feFuncR type="discrete" tableValues="0 0"/><feFuncG type="discrete" tableValues="0 0"/><feFuncB type="discrete" tableValues="0 0"/><feFuncA type="linear" slope="0.4" intercept="0"/></feComponentTransfer><feGaussianBlur stdDeviation="2.22222 2.22222"/></filter><filter id="fx2" x="-10%" y="-10%" width="120%" height="120%" filterUnits="userSpaceOnUse" primitiveUnits="userSpaceOnUse"><feComponentTransfer color-interpolation-filters="sRGB"><feFuncR type="discrete" tableValues="0 0"/><feFuncG type="discrete" tableValues="0 0"/><feFuncB type="discrete" tableValues="0 0"/><feFuncA type="linear" slope="0.4" intercept="0"/></feComponentTransfer><feGaussianBlur stdDeviation="2.22222 2.22222"/></filter><filter id="fx3" x="-10%" y="-10%" width="120%" height="120%" filterUnits="userSpaceOnUse" primitiveUnits="userSpaceOnUse"><feComponentTransfer color-interpolation-filters="sRGB"><feFuncR type="discrete" tableValues="0 0"/><feFuncG type="discrete" tableValues="0 0"/><feFuncB type="discrete" tableValues="0 0"/><feFuncA type="linear" slope="0.4" intercept="0"/></feComponentTransfer><feGaussianBlur stdDeviation="2.22222 2.22222"/></filter><filter id="fx4" x="-10%" y="-10%" width="120%" height="120%" filterUnits="userSpaceOnUse" primitiveUnits="userSpaceOnUse"><feComponentTransfer color-interpolation-filters="sRGB"><feFuncR type="discrete" tableValues="0 0"/><feFuncG type="discrete" tableValues="0 0"/><feFuncB type="discrete" tableValues="0 0"/><feFuncA type="linear" slope="0.4" intercept="0"/></feComponentTransfer><feGaussianBlur stdDeviation="2.22222 2.22222"/></filter><filter id="fx5" x="-10%" y="-10%" width="120%" height="120%" filterUnits="userSpaceOnUse" primitiveUnits="userSpaceOnUse"><feComponentTransfer color-interpolation-filters="sRGB"><feFuncR type="discrete" tableValues="0 0"/><feFuncG type="discrete" tableValues="0 0"/><feFuncB type="discrete" tableValues="0 0"/><feFuncA type="linear" slope="0.4" intercept="0"/></feComponentTransfer><feGaussianBlur stdDeviation="2.22222 2.22222"/></filter><filter id="fx6" x="-10%" y="-10%" width="120%" height="120%" filterUnits="userSpaceOnUse" primitiveUnits="userSpaceOnUse"><feComponentTransfer color-interpolation-filters="sRGB"><feFuncR type="discrete" tableValues="0 0"/><feFuncG type="discrete" tableValues="0 0"/><feFuncB type="discrete" tableValues="0 0"/><feFuncA type="linear" slope="0.4" intercept="0"/></feComponentTransfer><feGaussianBlur stdDeviation="2.22222 2.22222"/></filter><clipPath id="clip7"><rect x="0" y="0" width="1280" height="720"/></clipPath><linearGradient x1="691.456" y1="-70.3681" x2="588.544" y2="790.368" gradientUnits="userSpaceOnUse" spreadMethod="reflect" id="fill8"><stop offset="0" stop-color="#5CB2DC"/><stop offset="0.21" stop-color="#5CB2DC"/><stop offset="0.52" stop-color="#133F77"/><stop offset="0.72" stop-color="#C6D9F1"/><stop offset="0.94" stop-color="#C6D9F1"/><stop offset="1" stop-color="#C6D9F1"/></linearGradient><clipPath id="clip9"><rect x="-2" y="-2" width="827" height="197"/></clipPath><clipPath id="clip10"><rect x="0" y="0" width="815" height="192"/></clipPath><clipPath id="clip11"><rect x="-10" y="-2" width="496" height="197"/></clipPath><clipPath id="clip12"><rect x="0" y="0" width="483" height="192"/></clipPath><clipPath id="clip13"><rect x="-10" y="-2" width="941" height="188"/></clipPath><clipPath id="clip14"><rect x="0" y="0" width="927" height="184"/></clipPath><clipPath id="clip15"><rect x="-2" y="-2" width="386" height="188"/></clipPath><clipPath id="clip16"><rect x="0" y="0" width="377" height="184"/></clipPath><clipPath id="clip17"><rect x="-8" y="-4" width="423" height="66"/></clipPath><clipPath id="clip18"><rect x="0" y="0" width="412" height="59"/></clipPath><clipPath id="clip19"><rect x="-4" y="-4" width="1176" height="232"/></clipPath><clipPath id="clip20"><rect x="0" y="0" width="1169" height="224"/></clipPath><clipPath id="clip21"><rect x="-4" y="-2" width="869" height="84"/></clipPath><clipPath id="clip22"><rect x="0" y="0" width="861" height="77"/></clipPath></defs><g clip-path="url(#clip7)"><rect x="0" y="0" width="1280" height="720" fill="url(#fill8)"/><path d="M0 0 95.8335 95.8333" stroke="#FFFFFF" stroke-linecap="round" stroke-linejoin="round" stroke-miterlimit="10" fill="none" fill-rule="evenodd" transform="matrix(-1 0 0 1 1280.33 311.5)"/><path d="M0 0 313.056 313.056" stroke="#FFFFFF" stroke-linecap="round" stroke-linejoin="round" stroke-miterlimit="10" fill="none" fill-rule="evenodd" transform="matrix(-1 0 0 1 1280.56 335.5)"/><path d="M0 0 199.111 199.111" stroke="#FFFFFF" stroke-linecap="round" stroke-linejoin="round" stroke-miterlimit="10" fill="none" fill-rule="evenodd" transform="matrix(-1 0 0 1 1280.61 345.5)"/><path d="M0 0 183.278 183.278" stroke="#FFFFFF" stroke-width="3" stroke-linecap="round" stroke-linejoin="round" stroke-miterlimit="10" fill="none" fill-rule="evenodd" transform="matrix(-1 0 0 1 1279.78 329.5)"/><path d="M0 0 133.333 133.333" stroke="#FFFFFF" stroke-width="3" stroke-linecap="round" stroke-linejoin="round" stroke-miterlimit="10" fill="none" fill-rule="evenodd" transform="matrix(-1 0 0 1 1279.83 387.5)"/><g clip-path="url(#clip9)" filter="url(#fx0)" transform="translate(472 235)"><g clip-path="url(#clip10)"><path d="M8.07999 21.2219C8.07999 14.0743 13.8743 8.28 21.0219 8.28L802.978 8.28C810.126 8.28 815.92 14.0743 815.92 21.2219L815.92 170.778C815.92 177.926 810.126 183.72 802.978 183.72L21.0219 183.72C13.8743 183.72 8.07999 177.926 8.07999 170.778Z" fill="#E6E6E6" fill-rule="evenodd"/></g></g><path d="M488 257.688C488 250.681 493.681 245 500.688 245L1267.31 245C1274.32 245 1280 250.681 1280 257.688L1280 404.312C1280 411.319 1274.32 417 1267.31 417L500.688 417C493.681 417 488 411.319 488 404.312Z" fill="#E6E6E6" fill-rule="evenodd"/><g clip-path="url(#clip11)" filter="url(#fx1)" transform="translate(-7 235)"><g clip-path="url(#clip12)"><path d="M-0.66 21.2224C-0.66 14.0745 5.1345 8.28 12.2824 8.28L461.718 8.28C468.865 8.28 474.66 14.0745 474.66 21.2224L474.66 170.778C474.66 177.925 468.865 183.72 461.718 183.72L12.2824 183.72C5.1345 183.72-0.66 177.925-0.66 170.778Z" fill="#E6E6E6" fill-rule="evenodd"/></g></g><path d="M-3 257.689C-3 250.681 2.68089 245 9.68861 245L450.311 245C457.319 245 463 250.681 463 257.689L463 404.311C463 411.319 457.319 417 450.311 417L9.68861 417C2.68089 417-3 411.319-3 404.311Z" fill="#E6E6E6" fill-rule="evenodd"/><g clip-path="url(#clip13)" filter="url(#fx2)" transform="translate(-7 51)"><g clip-path="url(#clip14)"><path d="M-4.05 20.7003C-4.05 13.885 1.47494 8.36 8.2903 8.36L906.71 8.36C913.525 8.36 919.05 13.885 919.05 20.7003L919.05 163.3C919.05 170.115 913.525 175.64 906.71 175.64L8.2903 175.64C1.47494 175.64-4.05 170.115-4.05 163.3Z" fill="#E6E6E6" fill-rule="evenodd"/></g></g><path d="M-2 73.0984C-2 66.4166 3.41661 61 10.0983 61L890.902 61C897.583 61 903 66.4166 903 73.0984L903 212.902C903 219.583 897.583 225 890.902 225L10.0983 225C3.41661 225-2 219.583-2 212.902Z" fill="#E6E6E6" fill-rule="evenodd"/><g clip-path="url(#clip15)" filter="url(#fx3)" transform="translate(910 51)"><g clip-path="url(#clip16)"><path d="M8.41998 20.7001C8.41998 13.8849 13.9448 8.36 20.7601 8.36L361.24 8.36C368.055 8.36 373.58 13.8849 373.58 20.7001L373.58 163.3C373.58 170.115 368.055 175.64 361.24 175.64L20.7601 175.64C13.9448 175.64 8.41998 170.115 8.41998 163.3Z" fill="#E6E6E6" fill-rule="evenodd"/></g></g><path d="M922 73.0982C922 66.4165 927.417 61 934.098 61L1267.9 61C1274.58 61 1280 66.4165 1280 73.0982L1280 212.902C1280 219.583 1274.58 225 1267.9 225L934.098 225C927.417 225 922 219.583 922 212.902Z" fill="#E6E6E6" fill-rule="evenodd"/><g clip-path="url(#clip17)" filter="url(#fx4)" transform="translate(-7 -7)"><g clip-path="url(#clip18)"><path d="M3.07 16.5553C3.07 11.035 7.545 6.56 13.0652 6.56L393.935 6.56C399.455 6.56 403.93 11.035 403.93 16.5553L403.93 41.4447C403.93 46.965 399.455 51.44 393.935 51.44L13.0652 51.44C7.545 51.44 3.07 46.965 3.07 41.4447Z" fill="#E6E6E6" fill-rule="evenodd"/></g></g><path d="M0 9.79927C-1.56357e-15 4.38728 4.38726-1.56358e-15 9.79921-3.12715e-15L383.201 0C388.613-3.12715e-15 393 4.38728 393 9.79927L393 34.2007C393 39.6127 388.613 44 383.201 44L9.79921 44C4.38726 44 0 39.6127 0 34.2007Z" fill="#E6E6E6" fill-rule="evenodd"/><g clip-path="url(#clip19)" filter="url(#fx5)" transform="translate(55 426)"><g clip-path="url(#clip20)"><path d="M7.69 23.3101C7.69 14.8325 14.5625 7.95999 23.0401 7.95999L1145.96 7.95999C1154.44 7.95999 1161.31 14.8325 1161.31 23.3101L1161.31 200.69C1161.31 209.168 1154.44 216.04 1145.96 216.04L23.0401 216.04C14.5625 216.04 7.69 209.168 7.69 200.69Z" fill="#E6E6E6" fill-rule="evenodd"/></g></g><path d="M74 451.049C74 442.738 80.7377 436 89.0491 436L1189.95 436C1198.26 436 1205 442.738 1205 451.049L1205 624.951C1205 633.262 1198.26 640 1189.95 640L89.0491 640C80.7377 640 74 633.262 74 624.951Z" fill="#E6E6E6" fill-rule="evenodd"/><g clip-path="url(#clip21)" filter="url(#fx6)" transform="translate(208 650)"><g clip-path="url(#clip22)"><path d="M7.71001 19.6803C7.71001 13.4448 12.7648 8.39001 19.0001 8.39001L842 8.39001C848.235 8.39001 853.29 13.4448 853.29 19.6803L853.29 59.3197C853.29 65.5552 848.235 70.61 842 70.61L19.0001 70.61C12.7648 70.61 7.71001 65.5552 7.71001 59.3197Z" fill="#E6E6E6" fill-rule="evenodd"/></g></g><path d="M224 670.069C224 663.956 228.956 659 235.069 659L1041.93 659C1048.04 659 1053 663.956 1053 670.069L1053 708.931C1053 715.044 1048.04 720 1041.93 720L235.069 720C228.956 720 224 715.044 224 708.931Z" fill="#E6E6E6" fill-rule="evenodd"/></g></svg>