<svg width="1280" height="720" xmlns="http://www.w3.org/2000/svg" xmlns:xlink="http://www.w3.org/1999/xlink" overflow="hidden"><defs><clipPath id="clip0"><rect x="0" y="0" width="1280" height="720"/></clipPath><linearGradient x1="691.456" y1="-70.3681" x2="588.544" y2="790.368" gradientUnits="userSpaceOnUse" spreadMethod="reflect" id="fill1"><stop offset="0" stop-color="#5CB2DC"/><stop offset="0.21" stop-color="#5CB2DC"/><stop offset="0.52" stop-color="#133F77"/><stop offset="0.72" stop-color="#C6D9F1"/><stop offset="0.94" stop-color="#C6D9F1"/><stop offset="1" stop-color="#C6D9F1"/></linearGradient></defs><g clip-path="url(#clip0)"><rect x="0" y="0" width="1280" height="720" fill="url(#fill1)"/><path d="M0 0 95.8335 95.8333" stroke="#FFFFFF" stroke-linecap="round" stroke-linejoin="round" stroke-miterlimit="10" fill="none" fill-rule="evenodd" transform="matrix(-1 0 0 1 1280.33 311.5)"/><path d="M0 0 313.056 313.056" stroke="#FFFFFF" stroke-linecap="round" stroke-linejoin="round" stroke-miterlimit="10" fill="none" fill-rule="evenodd" transform="matrix(-1 0 0 1 1280.56 335.5)"/><path d="M0 0 199.111 199.111" stroke="#FFFFFF" stroke-linecap="round" stroke-linejoin="round" stroke-miterlimit="10" fill="none" fill-rule="evenodd" transform="matrix(-1 0 0 1 1280.61 345.5)"/><path d="M0 0 183.278 183.278" stroke="#FFFFFF" stroke-width="3" stroke-linecap="round" stroke-linejoin="round" stroke-miterlimit="10" fill="none" fill-rule="evenodd" transform="matrix(-1 0 0 1 1279.78 329.5)"/><path d="M0 0 133.333 133.333" stroke="#FFFFFF" stroke-width="3" stroke-linecap="round" stroke-linejoin="round" stroke-miterlimit="10" fill="none" fill-rule="evenodd" transform="matrix(-1 0 0 1 1279.83 387.5)"/></g></svg>